<?xml version="1.0" encoding="utf-8"?>
<!-- Generator: Adobe Illustrator 25.2.1, SVG Export Plug-In . SVG Version: 6.00 Build 0)  -->
<svg version="1.1" id="Capa_1" xmlns="http://www.w3.org/2000/svg" xmlns:xlink="http://www.w3.org/1999/xlink" x="0px" y="0px"
	 viewBox="0 0 847.7 604.3" style="enable-background:new 0 0 847.7 604.3;" xml:space="preserve">
<style type="text/css">
	.st0{clip-path:url(#SVGID_2_);}
	.st1{clip-path:url(#SVGID_4_);}
	.st2{fill:#FFFFFF;}
	.st3{font-family:'Arial-BoldMT';}
	.st4{font-size:5.4027px;}
	.st5{font-family:'ArialMT';}
	.st6{fill:#E30613;}
	.st7{font-size:6.0469px;}
	.st8{fill:none;stroke:#1D1D1B;stroke-width:0.5;stroke-linecap:square;stroke-miterlimit:10;stroke-dasharray:0.2,0.8;}
	.st9{font-family:'ArialNarrow';}
	.st10{font-size:15.7243px;}
</style>
<g>
	<defs>
		
			<rect id="SVGID_1_" x="125.1" y="-118.6" transform="matrix(1.047176e-02 -0.9999 0.9999 1.047176e-02 116.2851 721.2914)" width="595" height="841"/>
	</defs>
	<clipPath id="SVGID_2_">
		<use xlink:href="#SVGID_1_"  style="overflow:visible;"/>
	</clipPath>
	<g class="st0">
		<g>
			<defs>
				
					<rect id="SVGID_3_" x="125.1" y="-118.6" transform="matrix(1.047176e-02 -0.9999 0.9999 1.047176e-02 116.2729 721.7236)" width="595.4" height="841.4"/>
			</defs>
			<clipPath id="SVGID_4_">
				<use xlink:href="#SVGID_3_"  style="overflow:visible;"/>
			</clipPath>
			<g class="st1">
				
					<image style="overflow:visible;enable-background:new    ;" width="2481" height="3506" xlink:href="73C8358F.png"  transform="matrix(-4.408728e-17 0.24 -0.24 -4.408728e-17 846.66 8.86)">
				</image>
			</g>
		</g>
	</g>
</g>
<rect x="15.1" y="30.4" class="st2" width="146" height="87"/>
<g>
	<text transform="matrix(1 0 0 1 37.98 80.19)" class="st3 st4">San Martín</text>
	<text transform="matrix(1 0 0 1 18.62 87.88)" class="st5 st4">Dirección: JR</text>
	<text transform="matrix(1 0 0 1 50.74 87.88)" class="st5 st4"> </text>
	<text transform="matrix(1 0 0 1 51.95 87.88)" class="st5 st4">Antonio Raymondi 5</text>
	<text transform="matrix(1 0 0 1 100.6 87.88)" class="st5 st4">1</text>
	<text transform="matrix(1 0 0 1 103.2 87.88)" class="st5 st4">1</text>
	<text transform="matrix(1 0 0 1 18.79 95.65)" class="st5 st4">T</text>
	<text transform="matrix(1 0 0 1 21.49 95.65)" class="st5 st4">arapoto - Perú</text>
	<text transform="matrix(1 0 0 1 18.46 103.76)" class="st6 st5 st7">C</text>
	<text transform="matrix(1 0 0 1 21.9 103.76)" class="st6 st5 st7">e</text>
	<text transform="matrix(1 0 0 1 24.93 103.76)" class="st6 st5 st7">n</text>
	<text transform="matrix(1 0 0 1 28.26 103.76)" class="st6 st5 st7">t</text>
	<text transform="matrix(1 0 0 1 30.26 103.76)" class="st6 st5 st7">r</text>
	<text transform="matrix(1 0 0 1 32.21 103.76)" class="st6 st5 st7">al de eme</text>
	<text transform="matrix(1 0 0 1 56.66 103.76)" class="st6 st5 st7">r</text>
	<text transform="matrix(1 0 0 1 58.59 103.76)" class="st6 st5 st7">gencia 24 ho</text>
	<text transform="matrix(1 0 0 1 90.83 103.76)" class="st6 st5 st7">r</text>
	<text transform="matrix(1 0 0 1 92.78 103.76)" class="st6 st5 st7">as:</text>
	<text transform="matrix(1 0 0 1 18.46 111.02)" class="st6 st5 st7">042525802</text>
	<g transform="translate(15.11 33.41) scale(0.35)">
		
			<image style="overflow:visible;enable-background:new    ;" width="238" height="117" id="image" xlink:href="logo-icon-lg.png"  transform="matrix(0.2184 0 0 0.2184 29.7742 41.1105)">
		</image>
	</g>
</g>
<rect x="14.1" y="327.4" class="st2" width="209" height="87"/>
<rect x="438.1" y="325.4" class="st2" width="206" height="87"/>
<g>
	<text transform="matrix(1 0 0 1 37.98 378.19)" class="st3 st4">San Martín</text>
	<text transform="matrix(1 0 0 1 18.62 385.88)" class="st5 st4">Dirección: JR</text>
	<text transform="matrix(1 0 0 1 50.74 385.88)" class="st5 st4"> </text>
	<text transform="matrix(1 0 0 1 51.95 385.88)" class="st5 st4">Antonio Raymondi 5</text>
	<text transform="matrix(1 0 0 1 100.6 385.88)" class="st5 st4">1</text>
	<text transform="matrix(1 0 0 1 103.2 385.88)" class="st5 st4">1</text>
	<text transform="matrix(1 0 0 1 18.79 393.65)" class="st5 st4">T</text>
	<text transform="matrix(1 0 0 1 21.49 393.65)" class="st5 st4">arapoto - Perú</text>
	<text transform="matrix(1 0 0 1 18.46 401.76)" class="st6 st5 st7">C</text>
	<text transform="matrix(1 0 0 1 21.9 401.76)" class="st6 st5 st7">e</text>
	<text transform="matrix(1 0 0 1 24.93 401.76)" class="st6 st5 st7">n</text>
	<text transform="matrix(1 0 0 1 28.26 401.76)" class="st6 st5 st7">t</text>
	<text transform="matrix(1 0 0 1 30.26 401.76)" class="st6 st5 st7">r</text>
	<text transform="matrix(1 0 0 1 32.21 401.76)" class="st6 st5 st7">al de eme</text>
	<text transform="matrix(1 0 0 1 56.66 401.76)" class="st6 st5 st7">r</text>
	<text transform="matrix(1 0 0 1 58.59 401.76)" class="st6 st5 st7">gencia 24 ho</text>
	<text transform="matrix(1 0 0 1 90.83 401.76)" class="st6 st5 st7">r</text>
	<text transform="matrix(1 0 0 1 92.78 401.76)" class="st6 st5 st7">as:</text>
	<text transform="matrix(1 0 0 1 18.46 409.02)" class="st6 st5 st7">042525802</text>
	<g transform="translate(15.11 331.41) scale(0.35)">
		
			<image style="overflow:visible;enable-background:new    ;" width="238" height="117" id="image_2_" xlink:href="logo-icon-lg.png"  transform="matrix(0.2184 0 0 0.2184 29.7742 339.1105)">
		</image>
	</g>
</g>
<rect x="166.1" y="96.4" class="st2" width="83" height="18"/>
<g>
	<text transform="matrix(1 0 0 1 461.98 378.19)" class="st3 st4">San Martín</text>
	<text transform="matrix(1 0 0 1 442.62 385.88)" class="st5 st4">Dirección: JR</text>
	<text transform="matrix(1 0 0 1 474.74 385.88)" class="st5 st4"> </text>
	<text transform="matrix(1 0 0 1 475.95 385.88)" class="st5 st4">Antonio Raymondi 5</text>
	<text transform="matrix(1 0 0 1 524.6 385.88)" class="st5 st4">1</text>
	<text transform="matrix(1 0 0 1 527.2 385.88)" class="st5 st4">1</text>
	<text transform="matrix(1 0 0 1 442.79 393.65)" class="st5 st4">T</text>
	<text transform="matrix(1 0 0 1 445.49 393.65)" class="st5 st4">arapoto - Perú</text>
	<text transform="matrix(1 0 0 1 442.46 401.76)" class="st6 st5 st7">C</text>
	<text transform="matrix(1 0 0 1 445.9 401.76)" class="st6 st5 st7">e</text>
	<text transform="matrix(1 0 0 1 448.93 401.76)" class="st6 st5 st7">n</text>
	<text transform="matrix(1 0 0 1 452.26 401.76)" class="st6 st5 st7">t</text>
	<text transform="matrix(1 0 0 1 454.26 401.76)" class="st6 st5 st7">r</text>
	<text transform="matrix(1 0 0 1 456.21 401.76)" class="st6 st5 st7">al de eme</text>
	<text transform="matrix(1 0 0 1 480.66 401.76)" class="st6 st5 st7">r</text>
	<text transform="matrix(1 0 0 1 482.59 401.76)" class="st6 st5 st7">gencia 24 ho</text>
	<text transform="matrix(1 0 0 1 514.83 401.76)" class="st6 st5 st7">r</text>
	<text transform="matrix(1 0 0 1 516.78 401.76)" class="st6 st5 st7">as:</text>
	<text transform="matrix(1 0 0 1 442.46 409.02)" class="st6 st5 st7">042525802</text>
	<g transform="translate(439.11 331.41) scale(0.35)">
		
			<image style="overflow:visible;enable-background:new    ;" width="238" height="117" id="image_3_" xlink:href="logo-icon-lg.png"  transform="matrix(0.2184 0 0 0.2184 453.7742 339.1105)">
		</image>
	</g>
</g>
<g id="nrocat">
	<text transform="matrix(1 0 0 1 168.19 109.59)" class="st8 st9 st10">000001-2022</text>
</g>
<path class="st2" d="M819.1,38.4"/>
</svg>
